<?xml version="1.0" encoding="UTF-8" standalone="no"?>
<!DOCTYPE svg PUBLIC "-//W3C//DTD SVG 1.1//EN"
 "http://www.w3.org/Graphics/SVG/1.1/DTD/svg11.dtd">
<!-- Generated by graphviz version 2.26.3 (20100126.1600)
 -->
<!-- Title: G Pages: 1 -->
<svg width="744pt" height="2440pt"
 viewBox="0.00 0.00 744.00 2440.00" xmlns="http://www.w3.org/2000/svg" xmlns:xlink="http://www.w3.org/1999/xlink">
<g id="graph1" class="graph" transform="scale(1 1) rotate(0) translate(4 2436)">
<title>G</title>
<polygon fill="white" stroke="white" points="-4,5 -4,-2436 741,-2436 741,5 -4,5"/>
<g id="graph2" class="cluster"><title>cluster_Global</title>
<polyline fill="none" stroke="gray" points="337,-298 716,-298 "/>
<path fill="none" stroke="gray" d="M716,-298C722,-298 728,-304 728,-310"/>
<polyline fill="none" stroke="gray" points="728,-310 728,-2412 "/>
<path fill="none" stroke="gray" d="M728,-2412C728,-2418 722,-2424 716,-2424"/>
<polyline fill="none" stroke="gray" points="716,-2424 337,-2424 "/>
<path fill="none" stroke="gray" d="M337,-2424C331,-2424 325,-2418 325,-2412"/>
<polyline fill="none" stroke="gray" points="325,-2412 325,-310 "/>
<path fill="none" stroke="gray" d="M325,-310C325,-304 331,-298 337,-298"/>
<text text-anchor="middle" x="526.5" y="-2410.1" font-family="Times Roman,serif" font-size="11.00" fill="gray">\</text>
</g>
<!-- \\UserIdentity -->
<g id="node2" class="node"><title>\\UserIdentity</title>
<polygon fill="none" stroke="black" points="692,-990 610,-990 610,-954 692,-954 692,-990"/>
<text text-anchor="middle" x="651" y="-969.1" font-family="Times Roman,serif" font-size="11.00">UserIdentity</text>
</g>
<!-- \\CUserIdentity -->
<g id="node45" class="node"><title>\\CUserIdentity</title>
<ellipse fill="none" stroke="black" cx="378" cy="-272" rx="82.0244" ry="18.3848"/>
<text text-anchor="middle" x="378" y="-268.4" font-family="Times Roman,serif" font-size="14.00" fill="gray">\CUserIdentity</text>
</g>
<!-- \\UserIdentity&#45;&gt;\\CUserIdentity -->
<g id="edge3" class="edge"><title>\\UserIdentity&#45;&gt;\\CUserIdentity</title>
<path fill="none" stroke="black" d="M609.752,-963.986C599.192,-959.982 588.887,-953.984 582,-945 404.911,-713.965 710.1,-505.419 510,-294 499.127,-282.511 484.7,-275.578 469.379,-271.589"/>
<polygon fill="none" stroke="black" points="469.726,-268.082 459.211,-269.374 468.237,-274.922 469.726,-268.082"/>
</g>
<!-- \\Model -->
<g id="node3" class="node"><title>\\Model</title>
<polygon fill="none" stroke="black" points="405,-1287 351,-1287 351,-1251 405,-1251 405,-1287"/>
<text text-anchor="middle" x="378" y="-1266.1" font-family="Times Roman,serif" font-size="11.00">Model</text>
</g>
<!-- \\CActiveRecord -->
<g id="node47" class="node"><title>\\CActiveRecord</title>
<ellipse fill="none" stroke="black" cx="87" cy="-721" rx="84.8528" ry="18.3848"/>
<text text-anchor="middle" x="87" y="-717.4" font-family="Times Roman,serif" font-size="14.00" fill="gray">\CActiveRecord</text>
</g>
<!-- \\Model&#45;&gt;\\CActiveRecord -->
<g id="edge5" class="edge"><title>\\Model&#45;&gt;\\CActiveRecord</title>
<path fill="none" stroke="black" d="M350.733,-1272.23C321.303,-1274.13 274.789,-1272.31 246,-1247 168.231,-1178.63 108.02,-847.96 91.5131,-749.022"/>
<polygon fill="none" stroke="black" points="94.9662,-748.45 89.8841,-739.154 88.0597,-749.59 94.9662,-748.45"/>
</g>
<!-- \\ImageDecorator -->
<g id="node4" class="node"><title>\\ImageDecorator</title>
<polygon fill="none" stroke="black" points="703,-2340 599,-2340 599,-2304 703,-2304 703,-2340"/>
<text text-anchor="middle" x="651" y="-2319.1" font-family="Times Roman,serif" font-size="11.00">ImageDecorator</text>
</g>
<!-- \\Controller -->
<g id="node5" class="node"><title>\\Controller</title>
<polygon fill="none" stroke="black" points="412,-2016 344,-2016 344,-1980 412,-1980 412,-2016"/>
<text text-anchor="middle" x="378" y="-1995.1" font-family="Times Roman,serif" font-size="11.00">Controller</text>
</g>
<!-- \\CController -->
<g id="node49" class="node"><title>\\CController</title>
<ellipse fill="none" stroke="black" cx="87" cy="-1998" rx="70.2092" ry="18.3848"/>
<text text-anchor="middle" x="87" y="-1994.4" font-family="Times Roman,serif" font-size="14.00" fill="gray">\CController</text>
</g>
<!-- \\Controller&#45;&gt;\\CController -->
<g id="edge7" class="edge"><title>\\Controller&#45;&gt;\\CController</title>
<path fill="none" stroke="black" d="M343.476,-1998C300.442,-1998 225.521,-1998 167.729,-1998"/>
<polygon fill="none" stroke="black" points="167.516,-1994.5 157.515,-1998 167.515,-2001.5 167.516,-1994.5"/>
</g>
<!-- \\Songkick -->
<g id="node6" class="node"><title>\\Songkick</title>
<polygon fill="none" stroke="black" points="683,-2286 619,-2286 619,-2250 683,-2250 683,-2286"/>
<text text-anchor="middle" x="651" y="-2265.1" font-family="Times Roman,serif" font-size="11.00">Songkick</text>
</g>
<!-- \\FacebookCommand -->
<g id="node7" class="node"><title>\\FacebookCommand</title>
<polygon fill="none" stroke="black" points="713,-936 589,-936 589,-900 713,-900 713,-936"/>
<text text-anchor="middle" x="651" y="-915.1" font-family="Times Roman,serif" font-size="11.00">FacebookCommand</text>
</g>
<!-- \\CConsoleCommand -->
<g id="node51" class="node"><title>\\CConsoleCommand</title>
<ellipse fill="none" stroke="black" cx="378" cy="-218" rx="108.894" ry="18.3848"/>
<text text-anchor="middle" x="378" y="-214.4" font-family="Times Roman,serif" font-size="14.00" fill="gray">\CConsoleCommand</text>
</g>
<!-- \\FacebookCommand&#45;&gt;\\CConsoleCommand -->
<g id="edge9" class="edge"><title>\\FacebookCommand&#45;&gt;\\CConsoleCommand</title>
<path fill="none" stroke="black" d="M591.026,-899.897C587.648,-897.316 584.584,-894.368 582,-891 406.158,-661.792 704.798,-458.332 510,-245 503.926,-238.348 496.693,-233.087 488.787,-228.948"/>
<polygon fill="none" stroke="black" points="490.149,-225.722 479.6,-224.738 487.232,-232.086 490.149,-225.722"/>
</g>
<!-- \\GigatoolsCommand -->
<g id="node8" class="node"><title>\\GigatoolsCommand</title>
<polygon fill="none" stroke="black" points="713,-882 589,-882 589,-846 713,-846 713,-882"/>
<text text-anchor="middle" x="651" y="-861.1" font-family="Times Roman,serif" font-size="11.00">GigatoolsCommand</text>
</g>
<!-- \\GigatoolsCommand&#45;&gt;\\CConsoleCommand -->
<g id="edge11" class="edge"><title>\\GigatoolsCommand&#45;&gt;\\CConsoleCommand</title>
<path fill="none" stroke="black" d="M591.064,-845.868C587.678,-843.294 584.601,-840.355 582,-837 419.615,-627.518 689.702,-439.829 510,-245 503.893,-238.379 496.637,-233.139 488.715,-229.014"/>
<polygon fill="none" stroke="black" points="490.064,-225.783 479.514,-224.817 487.159,-232.152 490.064,-225.783"/>
</g>
<!-- \\SongkickCommand -->
<g id="node9" class="node"><title>\\SongkickCommand</title>
<polygon fill="none" stroke="black" points="712,-828 590,-828 590,-792 712,-792 712,-828"/>
<text text-anchor="middle" x="651" y="-807.1" font-family="Times Roman,serif" font-size="11.00">SongkickCommand</text>
</g>
<!-- \\SongkickCommand&#45;&gt;\\CConsoleCommand -->
<g id="edge13" class="edge"><title>\\SongkickCommand&#45;&gt;\\CConsoleCommand</title>
<path fill="none" stroke="black" d="M591.11,-791.832C587.713,-789.266 584.621,-786.339 582,-783 433.058,-593.225 674.623,-421.344 510,-245 503.795,-238.354 496.432,-233.103 488.404,-228.978"/>
<polygon fill="none" stroke="black" points="489.64,-225.696 479.085,-224.784 486.767,-232.079 489.64,-225.696"/>
</g>
<!-- \\SystemCommand -->
<g id="node10" class="node"><title>\\SystemCommand</title>
<polygon fill="none" stroke="black" points="709,-774 593,-774 593,-738 709,-738 709,-774"/>
<text text-anchor="middle" x="651" y="-753.1" font-family="Times Roman,serif" font-size="11.00">SystemCommand</text>
</g>
<!-- \\SystemCommand&#45;&gt;\\CConsoleCommand -->
<g id="edge15" class="edge"><title>\\SystemCommand&#45;&gt;\\CConsoleCommand</title>
<path fill="none" stroke="black" d="M592.736,-738.925C588.708,-736.106 585.046,-732.823 582,-729 446.482,-558.907 659.566,-402.882 510,-245 503.747,-238.399 496.349,-233.18 488.299,-229.076"/>
<polygon fill="none" stroke="black" points="489.517,-225.787 478.959,-224.902 486.661,-232.178 489.517,-225.787"/>
</g>
<!-- \\ArtistPromoter -->
<g id="node11" class="node"><title>\\ArtistPromoter</title>
<polygon fill="none" stroke="black" points="700,-720 602,-720 602,-684 700,-684 700,-720"/>
<text text-anchor="middle" x="651" y="-699.1" font-family="Times Roman,serif" font-size="11.00">ArtistPromoter</text>
</g>
<!-- \\ArtistPromoter&#45;&gt;\\CActiveRecord -->
<g id="edge17" class="edge"><title>\\ArtistPromoter&#45;&gt;\\CActiveRecord</title>
<path fill="none" stroke="black" d="M601.787,-690.259C594.223,-686.499 587.21,-681.54 582,-675 446.482,-504.907 664.143,-344.417 510,-191 467.99,-149.188 437.215,-169.428 378,-172"/>
</g>
<!-- \\DataSource -->
<g id="node12" class="node"><title>\\DataSource</title>
<polygon fill="none" stroke="black" points="691,-1962 611,-1962 611,-1926 691,-1926 691,-1962"/>
<text text-anchor="middle" x="651" y="-1941.1" font-family="Times Roman,serif" font-size="11.00">DataSource</text>
</g>
<!-- \\Country -->
<g id="node13" class="node"><title>\\Country</title>
<polygon fill="none" stroke="black" points="680,-666 622,-666 622,-630 680,-630 680,-666"/>
<text text-anchor="middle" x="651" y="-645.1" font-family="Times Roman,serif" font-size="11.00">Country</text>
</g>
<!-- \\Country&#45;&gt;\\CActiveRecord -->
<g id="edge19" class="edge"><title>\\Country&#45;&gt;\\CActiveRecord</title>
<path fill="none" stroke="black" d="M621.156,-643.29C607.235,-639.555 591.647,-632.885 582,-621 459.878,-470.555 648.58,-326.436 510,-191 467.611,-149.572 437.215,-169.428 378,-172"/>
</g>
<!-- \\Artist -->
<g id="node14" class="node"><title>\\Artist</title>
<polygon fill="none" stroke="black" points="678,-1314 624,-1314 624,-1278 678,-1278 678,-1314"/>
<text text-anchor="middle" x="651" y="-1293.1" font-family="Times Roman,serif" font-size="11.00">Artist</text>
</g>
<!-- \\Artist&#45;&gt;\\Model -->
<g id="edge21" class="edge"><title>\\Artist&#45;&gt;\\Model</title>
<path fill="none" stroke="black" d="M623.826,-1293.31C574.665,-1288.45 470.907,-1278.19 415.208,-1272.68"/>
<polygon fill="none" stroke="black" points="415.36,-1269.18 405.064,-1271.68 414.671,-1276.14 415.36,-1269.18"/>
</g>
<!-- \\ArtistFile -->
<g id="node15" class="node"><title>\\ArtistFile</title>
<polygon fill="none" stroke="black" points="682,-1260 620,-1260 620,-1224 682,-1224 682,-1260"/>
<text text-anchor="middle" x="651" y="-1239.1" font-family="Times Roman,serif" font-size="11.00">ArtistFile</text>
</g>
<!-- \\ArtistFile&#45;&gt;\\Model -->
<g id="edge23" class="edge"><title>\\ArtistFile&#45;&gt;\\Model</title>
<path fill="none" stroke="black" d="M619.417,-1245.12C568.757,-1250.13 469.548,-1259.95 415.416,-1265.3"/>
<polygon fill="none" stroke="black" points="414.825,-1261.84 405.218,-1266.31 415.514,-1268.81 414.825,-1261.84"/>
</g>
<!-- \\Gig -->
<g id="node16" class="node"><title>\\Gig</title>
<polygon fill="none" stroke="black" points="678,-1206 624,-1206 624,-1170 678,-1170 678,-1206"/>
<text text-anchor="middle" x="651" y="-1185.1" font-family="Times Roman,serif" font-size="11.00">Gig</text>
</g>
<!-- \\Gig&#45;&gt;\\Model -->
<g id="edge25" class="edge"><title>\\Gig&#45;&gt;\\Model</title>
<path fill="none" stroke="black" d="M623.685,-1198.36C610.961,-1203.27 595.651,-1209.3 582,-1215 549.687,-1228.49 543.539,-1236.93 510,-1247 478.766,-1256.38 442.099,-1262.09 415.347,-1265.33"/>
<polygon fill="none" stroke="black" points="414.787,-1261.87 405.254,-1266.49 415.589,-1268.82 414.787,-1261.87"/>
</g>
<!-- \\PromoterPromoter -->
<g id="node17" class="node"><title>\\PromoterPromoter</title>
<polygon fill="none" stroke="black" points="711,-612 591,-612 591,-576 711,-576 711,-612"/>
<text text-anchor="middle" x="651" y="-591.1" font-family="Times Roman,serif" font-size="11.00">PromoterPromoter</text>
</g>
<!-- \\PromoterPromoter&#45;&gt;\\CActiveRecord -->
<g id="edge27" class="edge"><title>\\PromoterPromoter&#45;&gt;\\CActiveRecord</title>
<path fill="none" stroke="black" d="M591.635,-575.89C588.066,-573.31 584.796,-570.363 582,-567 473.236,-436.155 633.062,-308.499 510,-191 467.131,-150.069 437.215,-169.428 378,-172"/>
</g>
<!-- \\PromoterFile -->
<g id="node18" class="node"><title>\\PromoterFile</title>
<polygon fill="none" stroke="black" points="694,-1152 608,-1152 608,-1116 694,-1116 694,-1152"/>
<text text-anchor="middle" x="651" y="-1131.1" font-family="Times Roman,serif" font-size="11.00">PromoterFile</text>
</g>
<!-- \\PromoterFile&#45;&gt;\\Model -->
<g id="edge29" class="edge"><title>\\PromoterFile&#45;&gt;\\Model</title>
<path fill="none" stroke="black" d="M607.682,-1147.11C598.755,-1150.84 589.729,-1155.44 582,-1161 541.527,-1190.1 553.273,-1222.25 510,-1247 481.029,-1263.57 443.009,-1268.47 415.217,-1269.58"/>
<polygon fill="none" stroke="black" points="415.014,-1266.08 405.106,-1269.84 415.192,-1273.08 415.014,-1266.08"/>
</g>
<!-- \\Event -->
<g id="node19" class="node"><title>\\Event</title>
<polygon fill="none" stroke="black" points="678,-558 624,-558 624,-522 678,-522 678,-558"/>
<text text-anchor="middle" x="651" y="-537.1" font-family="Times Roman,serif" font-size="11.00">Event</text>
</g>
<!-- \\Event&#45;&gt;\\CActiveRecord -->
<g id="edge31" class="edge"><title>\\Event&#45;&gt;\\CActiveRecord</title>
<path fill="none" stroke="black" d="M623.854,-535.702C609.431,-532.036 592.551,-525.303 582,-513 486.535,-401.684 617.609,-290.624 510,-191 466.506,-150.734 437.215,-169.428 378,-172"/>
</g>
<!-- \\Subscription -->
<g id="node20" class="node"><title>\\Subscription</title>
<polygon fill="none" stroke="black" points="692,-504 610,-504 610,-468 692,-468 692,-504"/>
<text text-anchor="middle" x="651" y="-483.1" font-family="Times Roman,serif" font-size="11.00">Subscription</text>
</g>
<!-- \\Subscription&#45;&gt;\\CActiveRecord -->
<g id="edge33" class="edge"><title>\\Subscription&#45;&gt;\\CActiveRecord</title>
<path fill="none" stroke="black" d="M609.172,-476.716C599.113,-472.725 589.207,-467.051 582,-459 499.739,-367.105 602.263,-272.847 510,-191 465.661,-151.666 437.215,-169.428 378,-172"/>
<path fill="none" stroke="black" d="M378,-172C318.785,-174.572 290.905,-152.313 246,-191 166.913,-259.136 107.514,-593.563 91.374,-693.039"/>
<polygon fill="none" stroke="black" points="87.9118,-692.525 89.7831,-702.953 94.8234,-693.634 87.9118,-692.525"/>
</g>
<!-- \\User -->
<g id="node21" class="node"><title>\\User</title>
<polygon fill="none" stroke="black" points="678,-1098 624,-1098 624,-1062 678,-1062 678,-1098"/>
<text text-anchor="middle" x="651" y="-1077.1" font-family="Times Roman,serif" font-size="11.00">User</text>
</g>
<!-- \\User&#45;&gt;\\Model -->
<g id="edge35" class="edge"><title>\\User&#45;&gt;\\Model</title>
<path fill="none" stroke="black" d="M623.989,-1085.7C610.131,-1089.75 593.744,-1096.4 582,-1107 530.066,-1153.89 566.517,-1205.75 510,-1247 482.793,-1266.86 444.067,-1271.28 415.594,-1271.38"/>
<polygon fill="none" stroke="black" points="415.279,-1267.87 405.229,-1271.23 415.178,-1274.87 415.279,-1267.87"/>
</g>
<!-- \\ArtistGig -->
<g id="node22" class="node"><title>\\ArtistGig</title>
<polygon fill="none" stroke="black" points="683,-1044 619,-1044 619,-1008 683,-1008 683,-1044"/>
<text text-anchor="middle" x="651" y="-1023.1" font-family="Times Roman,serif" font-size="11.00">ArtistGig</text>
</g>
<!-- \\ArtistGig&#45;&gt;\\Model -->
<g id="edge37" class="edge"><title>\\ArtistGig&#45;&gt;\\Model</title>
<path fill="none" stroke="black" d="M618.947,-1032.48C606.051,-1036.5 591.917,-1042.91 582,-1053 517.543,-1118.6 580.914,-1188.44 510,-1247 483.755,-1268.67 444.316,-1272.75 415.382,-1272.26"/>
<polygon fill="none" stroke="black" points="415.359,-1268.76 405.241,-1271.9 415.111,-1275.76 415.359,-1268.76"/>
</g>
<!-- \\ContactForm -->
<g id="node23" class="node"><title>\\ContactForm</title>
<polygon fill="none" stroke="black" points="695,-450 607,-450 607,-414 695,-414 695,-450"/>
<text text-anchor="middle" x="651" y="-429.1" font-family="Times Roman,serif" font-size="11.00">ContactForm</text>
</g>
<!-- \\CFormModel -->
<g id="node67" class="node"><title>\\CFormModel</title>
<ellipse fill="none" stroke="black" cx="378" cy="-126" rx="74.9533" ry="18.3848"/>
<text text-anchor="middle" x="378" y="-122.4" font-family="Times Roman,serif" font-size="14.00" fill="gray">\CFormModel</text>
</g>
<!-- \\ContactForm&#45;&gt;\\CFormModel -->
<g id="edge39" class="edge"><title>\\ContactForm&#45;&gt;\\CFormModel</title>
<path fill="none" stroke="black" d="M606.418,-421.427C597.359,-417.525 588.597,-412.215 582,-405 504.836,-320.614 592.686,-236.983 510,-158 496.692,-145.288 479.229,-137.353 461.383,-132.463"/>
<polygon fill="none" stroke="black" points="461.996,-129.01 451.452,-130.049 460.342,-135.812 461.996,-129.01"/>
</g>
<!-- \\VenueFile -->
<g id="node24" class="node"><title>\\VenueFile</title>
<polygon fill="none" stroke="black" points="685,-1584 617,-1584 617,-1548 685,-1548 685,-1584"/>
<text text-anchor="middle" x="651" y="-1563.1" font-family="Times Roman,serif" font-size="11.00">VenueFile</text>
</g>
<!-- \\VenueFile&#45;&gt;\\Model -->
<g id="edge41" class="edge"><title>\\VenueFile&#45;&gt;\\Model</title>
<path fill="none" stroke="black" d="M616.782,-1556.79C605.025,-1552.59 592.253,-1546.77 582,-1539 490.777,-1469.89 420.261,-1349.61 391.76,-1296.06"/>
<polygon fill="none" stroke="black" points="394.835,-1294.39 387.086,-1287.16 388.638,-1297.64 394.835,-1294.39"/>
</g>
<!-- \\GigFile -->
<g id="node25" class="node"><title>\\GigFile</title>
<polygon fill="none" stroke="black" points="678,-1530 624,-1530 624,-1494 678,-1494 678,-1530"/>
<text text-anchor="middle" x="651" y="-1509.1" font-family="Times Roman,serif" font-size="11.00">GigFile</text>
</g>
<!-- \\GigFile&#45;&gt;\\Model -->
<g id="edge43" class="edge"><title>\\GigFile&#45;&gt;\\Model</title>
<path fill="none" stroke="black" d="M623.77,-1504.43C610.492,-1500 594.69,-1493.56 582,-1485 501.824,-1430.91 429.659,-1340.18 396.78,-1295.5"/>
<polygon fill="none" stroke="black" points="399.453,-1293.23 390.737,-1287.2 393.795,-1297.35 399.453,-1293.23"/>
</g>
<!-- \\Promoter -->
<g id="node26" class="node"><title>\\Promoter</title>
<polygon fill="none" stroke="black" points="685,-1476 617,-1476 617,-1440 685,-1440 685,-1476"/>
<text text-anchor="middle" x="651" y="-1455.1" font-family="Times Roman,serif" font-size="11.00">Promoter</text>
</g>
<!-- \\Promoter&#45;&gt;\\Model -->
<g id="edge45" class="edge"><title>\\Promoter&#45;&gt;\\Model</title>
<path fill="none" stroke="black" d="M616.728,-1446.89C605.341,-1442.61 592.816,-1437.22 582,-1431 512.464,-1391 441.348,-1328.65 404.227,-1294.13"/>
<polygon fill="none" stroke="black" points="406.525,-1291.49 396.835,-1287.21 401.739,-1296.6 406.525,-1291.49"/>
</g>
<!-- \\File -->
<g id="node27" class="node"><title>\\File</title>
<polygon fill="none" stroke="black" points="678,-1422 624,-1422 624,-1386 678,-1386 678,-1422"/>
<text text-anchor="middle" x="651" y="-1401.1" font-family="Times Roman,serif" font-size="11.00">File</text>
</g>
<!-- \\File&#45;&gt;\\Model -->
<g id="edge47" class="edge"><title>\\File&#45;&gt;\\Model</title>
<path fill="none" stroke="black" d="M623.832,-1394.19C611.003,-1389.35 595.564,-1383.22 582,-1377 521.846,-1349.42 454.412,-1312.48 414.121,-1289.73"/>
<polygon fill="none" stroke="black" points="415.642,-1286.57 405.216,-1284.69 412.191,-1292.66 415.642,-1286.57"/>
</g>
<!-- \\Venue -->
<g id="node28" class="node"><title>\\Venue</title>
<polygon fill="none" stroke="black" points="678,-1368 624,-1368 624,-1332 678,-1332 678,-1368"/>
<text text-anchor="middle" x="651" y="-1347.1" font-family="Times Roman,serif" font-size="11.00">Venue</text>
</g>
<!-- \\Venue&#45;&gt;\\Model -->
<g id="edge49" class="edge"><title>\\Venue&#45;&gt;\\Model</title>
<path fill="none" stroke="black" d="M623.826,-1341.94C574.563,-1327.32 470.476,-1296.44 414.861,-1279.94"/>
<polygon fill="none" stroke="black" points="415.647,-1276.52 405.064,-1277.03 413.656,-1283.23 415.647,-1276.52"/>
</g>
<!-- \\SiteTest -->
<g id="node29" class="node"><title>\\SiteTest</title>
<polygon fill="none" stroke="black" points="681,-1638 621,-1638 621,-1602 681,-1602 681,-1638"/>
<text text-anchor="middle" x="651" y="-1617.1" font-family="Times Roman,serif" font-size="11.00">SiteTest</text>
</g>
<!-- \\WebTestCase -->
<g id="node30" class="node"><title>\\WebTestCase</title>
<polygon fill="none" stroke="black" points="423,-1638 333,-1638 333,-1602 423,-1602 423,-1638"/>
<text text-anchor="middle" x="378" y="-1617.1" font-family="Times Roman,serif" font-size="11.00">WebTestCase</text>
</g>
<!-- \\SiteTest&#45;&gt;\\WebTestCase -->
<g id="edge51" class="edge"><title>\\SiteTest&#45;&gt;\\WebTestCase</title>
<path fill="none" stroke="black" d="M620.741,-1620C575.653,-1620 490.09,-1620 433.545,-1620"/>
<polygon fill="none" stroke="black" points="433.341,-1616.5 423.341,-1620 433.341,-1623.5 433.341,-1616.5"/>
</g>
<!-- \\CWebTestCase -->
<g id="node75" class="node"><title>\\CWebTestCase</title>
<ellipse fill="none" stroke="black" cx="87" cy="-1620" rx="85.7684" ry="18.3848"/>
<text text-anchor="middle" x="87" y="-1616.4" font-family="Times Roman,serif" font-size="14.00" fill="gray">\CWebTestCase</text>
</g>
<!-- \\WebTestCase&#45;&gt;\\CWebTestCase -->
<g id="edge53" class="edge"><title>\\WebTestCase&#45;&gt;\\CWebTestCase</title>
<path fill="none" stroke="black" d="M332.851,-1620C293.198,-1620 234.157,-1620 183.872,-1620"/>
<polygon fill="none" stroke="black" points="183.613,-1616.5 173.613,-1620 183.613,-1623.5 183.613,-1616.5"/>
</g>
<!-- \\ArtistController -->
<g id="node31" class="node"><title>\\ArtistController</title>
<polygon fill="none" stroke="black" points="700,-1908 602,-1908 602,-1872 700,-1872 700,-1908"/>
<text text-anchor="middle" x="651" y="-1887.1" font-family="Times Roman,serif" font-size="11.00">ArtistController</text>
</g>
<!-- \\ArtistController&#45;&gt;\\Controller -->
<g id="edge55" class="edge"><title>\\ArtistController&#45;&gt;\\Controller</title>
<path fill="none" stroke="black" d="M604.593,-1908.12C597.039,-1911.08 589.3,-1914.12 582,-1917 526.862,-1938.73 463.423,-1963.96 422.122,-1980.41"/>
<polygon fill="none" stroke="black" points="420.625,-1977.24 412.631,-1984.19 423.216,-1983.74 420.625,-1977.24"/>
</g>
<!-- \\SubscriptionController -->
<g id="node32" class="node"><title>\\SubscriptionController</title>
<polygon fill="none" stroke="black" points="719,-1854 583,-1854 583,-1818 719,-1818 719,-1854"/>
<text text-anchor="middle" x="651" y="-1833.1" font-family="Times Roman,serif" font-size="11.00">SubscriptionController</text>
</g>
<!-- \\SubscriptionController&#45;&gt;\\Controller -->
<g id="edge57" class="edge"><title>\\SubscriptionController&#45;&gt;\\Controller</title>
<path fill="none" stroke="black" d="M601.063,-1854.08C594.554,-1856.86 588.051,-1859.86 582,-1863 518.046,-1896.2 449.256,-1944.69 410.133,-1973.62"/>
<polygon fill="none" stroke="black" points="407.715,-1971.06 401.78,-1979.84 411.893,-1976.68 407.715,-1971.06"/>
</g>
<!-- \\UserController -->
<g id="node33" class="node"><title>\\UserController</title>
<polygon fill="none" stroke="black" points="698,-1800 604,-1800 604,-1764 698,-1764 698,-1800"/>
<text text-anchor="middle" x="651" y="-1779.1" font-family="Times Roman,serif" font-size="11.00">UserController</text>
</g>
<!-- \\UserController&#45;&gt;\\Controller -->
<g id="edge59" class="edge"><title>\\UserController&#45;&gt;\\Controller</title>
<path fill="none" stroke="black" d="M603.457,-1797.87C596.045,-1801.12 588.648,-1804.83 582,-1809 507.189,-1855.92 435.146,-1932.27 400.102,-1972.04"/>
<polygon fill="none" stroke="black" points="397.338,-1969.89 393.397,-1979.72 402.611,-1974.49 397.338,-1969.89"/>
</g>
<!-- \\GigController -->
<g id="node34" class="node"><title>\\GigController</title>
<polygon fill="none" stroke="black" points="694,-1746 608,-1746 608,-1710 694,-1710 694,-1746"/>
<text text-anchor="middle" x="651" y="-1725.1" font-family="Times Roman,serif" font-size="11.00">GigController</text>
</g>
<!-- \\GigController&#45;&gt;\\Controller -->
<g id="edge61" class="edge"><title>\\GigController&#45;&gt;\\Controller</title>
<path fill="none" stroke="black" d="M607.326,-1741.27C598.516,-1744.97 589.628,-1749.52 582,-1755 496.459,-1816.42 424.91,-1921.62 394.161,-1970.96"/>
<polygon fill="none" stroke="black" points="390.995,-1969.43 388.732,-1979.78 396.955,-1973.1 390.995,-1969.43"/>
</g>
<!-- \\VenueApiController -->
<g id="node35" class="node"><title>\\VenueApiController</title>
<polygon fill="none" stroke="black" points="710,-1692 592,-1692 592,-1656 710,-1656 710,-1692"/>
<text text-anchor="middle" x="651" y="-1671.1" font-family="Times Roman,serif" font-size="11.00">VenueApiController</text>
</g>
<!-- \\VenueApiController&#45;&gt;\\Controller -->
<g id="edge63" class="edge"><title>\\VenueApiController&#45;&gt;\\Controller</title>
<path fill="none" stroke="black" d="M595.833,-1692.02C590.932,-1694.66 586.232,-1697.64 582,-1701 485.203,-1777.84 416.309,-1912.97 389.903,-1970.66"/>
<polygon fill="none" stroke="black" points="386.671,-1969.31 385.749,-1979.86 393.052,-1972.19 386.671,-1969.31"/>
</g>
<!-- \\ArtistApiController -->
<g id="node36" class="node"><title>\\ArtistApiController</title>
<polygon fill="none" stroke="black" points="708,-2394 594,-2394 594,-2358 708,-2358 708,-2394"/>
<text text-anchor="middle" x="651" y="-2373.1" font-family="Times Roman,serif" font-size="11.00">ArtistApiController</text>
</g>
<!-- \\ArtistApiController&#45;&gt;\\Controller -->
<g id="edge65" class="edge"><title>\\ArtistApiController&#45;&gt;\\Controller</title>
<path fill="none" stroke="black" d="M594.871,-2357.92C590.277,-2355.31 585.907,-2352.35 582,-2349 473.806,-2256.26 409.265,-2091.07 386.911,-2025.72"/>
<polygon fill="none" stroke="black" points="390.187,-2024.48 383.686,-2016.11 383.551,-2026.71 390.187,-2024.48"/>
</g>
<!-- \\PromoterAPIController -->
<g id="node37" class="node"><title>\\PromoterAPIController</title>
<polygon fill="none" stroke="black" points="719,-2232 583,-2232 583,-2196 719,-2196 719,-2232"/>
<text text-anchor="middle" x="651" y="-2211.1" font-family="Times Roman,serif" font-size="11.00">PromoterAPIController</text>
</g>
<!-- \\PromoterAPIController&#45;&gt;\\Controller -->
<g id="edge67" class="edge"><title>\\PromoterAPIController&#45;&gt;\\Controller</title>
<path fill="none" stroke="black" d="M598.728,-2195.99C592.926,-2193.28 587.231,-2190.28 582,-2187 507.189,-2140.08 435.146,-2063.73 400.102,-2023.96"/>
<polygon fill="none" stroke="black" points="402.611,-2021.51 393.397,-2016.28 397.338,-2026.11 402.611,-2021.51"/>
</g>
<!-- \\VenueController -->
<g id="node38" class="node"><title>\\VenueController</title>
<polygon fill="none" stroke="black" points="702,-2178 600,-2178 600,-2142 702,-2142 702,-2178"/>
<text text-anchor="middle" x="651" y="-2157.1" font-family="Times Roman,serif" font-size="11.00">VenueController</text>
</g>
<!-- \\VenueController&#45;&gt;\\Controller -->
<g id="edge69" class="edge"><title>\\VenueController&#45;&gt;\\Controller</title>
<path fill="none" stroke="black" d="M601.063,-2141.92C594.554,-2139.14 588.051,-2136.14 582,-2133 518.046,-2099.8 449.256,-2051.31 410.133,-2022.38"/>
<polygon fill="none" stroke="black" points="411.893,-2019.32 401.78,-2016.16 407.715,-2024.94 411.893,-2019.32"/>
</g>
<!-- \\SiteApiController -->
<g id="node39" class="node"><title>\\SiteApiController</title>
<polygon fill="none" stroke="black" points="704,-2124 598,-2124 598,-2088 704,-2088 704,-2124"/>
<text text-anchor="middle" x="651" y="-2103.1" font-family="Times Roman,serif" font-size="11.00">SiteApiController</text>
</g>
<!-- \\SiteApiController&#45;&gt;\\Controller -->
<g id="edge71" class="edge"><title>\\SiteApiController&#45;&gt;\\Controller</title>
<path fill="none" stroke="black" d="M604.593,-2087.88C597.039,-2084.92 589.3,-2081.88 582,-2079 526.862,-2057.27 463.423,-2032.04 422.122,-2015.59"/>
<polygon fill="none" stroke="black" points="423.216,-2012.26 412.631,-2011.81 420.625,-2018.76 423.216,-2012.26"/>
</g>
<!-- \\PromoterController -->
<g id="node40" class="node"><title>\\PromoterController</title>
<polygon fill="none" stroke="black" points="711,-2070 591,-2070 591,-2034 711,-2034 711,-2070"/>
<text text-anchor="middle" x="651" y="-2049.1" font-family="Times Roman,serif" font-size="11.00">PromoterController</text>
</g>
<!-- \\PromoterController&#45;&gt;\\Controller -->
<g id="edge73" class="edge"><title>\\PromoterController&#45;&gt;\\Controller</title>
<path fill="none" stroke="black" d="M590.412,-2040.02C539.59,-2029.96 468.182,-2015.84 422.497,-2006.8"/>
<polygon fill="none" stroke="black" points="423.082,-2003.35 412.593,-2004.84 421.724,-2010.22 423.082,-2003.35"/>
</g>
<!-- \\SiteController -->
<g id="node41" class="node"><title>\\SiteController</title>
<polygon fill="none" stroke="black" points="696,-2016 606,-2016 606,-1980 696,-1980 696,-2016"/>
<text text-anchor="middle" x="651" y="-1995.1" font-family="Times Roman,serif" font-size="11.00">SiteController</text>
</g>
<!-- \\SiteController&#45;&gt;\\Controller -->
<g id="edge75" class="edge"><title>\\SiteController&#45;&gt;\\Controller</title>
<path fill="none" stroke="black" d="M605.92,-1998C555.303,-1998 473.647,-1998 423.044,-1998"/>
<polygon fill="none" stroke="black" points="422.74,-1994.5 412.74,-1998 422.74,-2001.5 422.74,-1994.5"/>
</g>
<!-- \\Email -->
<g id="node42" class="node"><title>\\Email</title>
<polygon fill="none" stroke="black" points="678,-396 624,-396 624,-360 678,-360 678,-396"/>
<text text-anchor="middle" x="651" y="-375.1" font-family="Times Roman,serif" font-size="11.00">Email</text>
</g>
<!-- \\CApplicationComponent -->
<g id="node88" class="node"><title>\\CApplicationComponent</title>
<ellipse fill="none" stroke="black" cx="378" cy="-72" rx="131.022" ry="18.3848"/>
<text text-anchor="middle" x="378" y="-68.4" font-family="Times Roman,serif" font-size="14.00" fill="gray">\CApplicationComponent</text>
</g>
<!-- \\Email&#45;&gt;\\CApplicationComponent -->
<g id="edge77" class="edge"><title>\\Email&#45;&gt;\\CApplicationComponent</title>
<path fill="none" stroke="black" d="M623.786,-373.37C609.524,-369.611 592.819,-362.895 582,-351 503.625,-264.829 595.456,-178.154 510,-99 504.985,-94.3544 499.394,-90.4176 493.424,-87.0884"/>
<polygon fill="none" stroke="black" points="494.945,-83.9359 484.431,-82.6335 491.838,-90.2086 494.945,-83.9359"/>
</g>
<!-- \\Debug -->
<g id="node43" class="node"><title>\\Debug</title>
<polygon fill="none" stroke="black" points="678,-342 624,-342 624,-306 678,-306 678,-342"/>
<text text-anchor="middle" x="651" y="-321.1" font-family="Times Roman,serif" font-size="11.00">Debug</text>
</g>
<!-- \\CWidget -->
<g id="node90" class="node"><title>\\CWidget</title>
<ellipse fill="none" stroke="black" cx="378" cy="-18" rx="56.0679" ry="18.3848"/>
<text text-anchor="middle" x="378" y="-14.4" font-family="Times Roman,serif" font-size="14.00" fill="gray">\CWidget</text>
</g>
<!-- \\Debug&#45;&gt;\\CWidget -->
<g id="edge79" class="edge"><title>\\Debug&#45;&gt;\\CWidget</title>
<path fill="none" stroke="black" d="M647.526,-305.843C636.9,-255.56 599.924,-113.689 510,-45 491.379,-30.7761 467.118,-23.5497 444.484,-20.0226"/>
<polygon fill="none" stroke="black" points="444.943,-16.5529 434.565,-18.689 444.01,-23.4904 444.943,-16.5529"/>
</g>
</g>
</svg>
